:SAMPLES-PER-SECOND 30
:FULLY-SPECIFIED
:DEGREES
32
root  69.6833 39.5629 -34.4603 -140.911 -87.4007 141.237
RightUpLeg  2.67553 -10.5313 -4.03036
RightLeg  13.8247 -3.77312 2.78293
RightFoot  -18.6667 0.113307 3.74446
RightToes  -5.8209e-011 0 -3.6325e-017
Spine  0.423266 0.280359 7.98734
Spine1  14.4783 1.37067 -2.95418
HEad  -1.9602 1.07098 -3.51761
LeftShoulder1  8.7451 -12.4446 -47.8602
LeftArm  -7.0994 13.9018 -25.9821
LeftForeArm  21.0734 -19.4886 -4.02713
LeftHand  -0.244104 0.0205437 5.32207
RightShoulder  6.23647 9.829 40.603
RightArm  -6.17721 -11.9036 32.7191
RightForeArm  -19.87 14.6688 7.70401
RightHand  -1.22591 2.76602 -17.5724
LeftUpLeg  -22.7367 6.54838 -3.27837
LeftLeg  35.7637 8.54278 6.91312
LeftFoot  -10.1446 0.0881336 -2.63752
LeftToes  5.72949e-011 -2.03295e-011 6.54899e-012
33
root  69.048 39.5662 -34.6215 -132.934 -86.913 133.561
RightUpLeg  3.92127 -10.2587 -4.66605
RightLeg  12.7423 -3.80421 3.06371
RightFoot  -18.7639 0.081015 3.20935
RightToes  -5.8209e-011 0 -3.6325e-017
Spine  1.74157 0.666043 7.95797
Spine1  13.1541 1.99676 -3.82992
HEad  -2.96014 0.629018 -4.02225
LeftShoulder1  8.7464 -12.3505 -48.1539
LeftArm  -8.40748 14.6387 -25.4584
LeftForeArm  18.8191 -23.0509 -3.99232
LeftHand  -0.244104 0.0205437 5.32207
RightShoulder  6.27752 9.78401 41.0429
RightArm  -4.48838 -10.2777 33.6638
RightForeArm  -25.7132 18.4504 6.93743
RightHand  -1.11903 1.54235 -18.8011
LeftUpLeg  -24.5317 7.97526 -4.9738
LeftLeg  30.8888 8.16339 5.59318
LeftFoot  -9.21427 0.106855 -2.75992
LeftToes  5.72949e-011 -2.03295e-011 6.54899e-012
34
root  68.3264 39.5061 -34.7718 -125.765 -86.8609 126.569
RightUpLeg  5.43998 -9.90015 -4.9194
RightLeg  11.7564 -4.19186 3.21423
RightFoot  -19.1078 0.0727896 2.97731
RightToes  -5.8209e-011 0 -3.6325e-017
Spine  2.71542 0.819663 7.93963
Spine1  12.5272 2.27798 -4.35399
HEad  -4.36141 0.267791 -4.92348
LeftShoulder1  8.81216 -12.3733 -48.449
LeftArm  -10.4449 15.3005 -25.1776
LeftForeArm  19.446 -26.2586 -4.58785
LeftHand  -0.244104 0.0205437 5.32207
RightShoulder  6.38317 9.81338 41.6882
RightArm  -1.40653 -7.52775 33.988
RightForeArm  -26.9797 21.6995 6.37647
RightHand  -0.890071 0.130722 -18.6541
LeftUpLeg  -25.9063 8.40825 -6.20211
LeftLeg  25.5399 6.57754 3.75703
LeftFoot  -7.64752 0.148478 -3.15607
LeftToes  5.72949e-011 -2.03295e-011 6.54899e-012
35
root  67.5064 39.3939 -34.8938 -123.094 -86.8792 123.855
RightUpLeg  7.34246 -9.64692 -5.06862
RightLeg  10.8777 -4.47881 3.32853
RightFoot  -19.6522 0.0972589 3.16938
RightToes  -5.8209e-011 0 -3.6325e-017
Spine  3.11816 0.928633 8.28453
Spine1  13.0951 2.6356 -5.12775
HEad  -6.06378 0.0452641 -5.78193
LeftShoulder1  8.867 -12.493 -48.3864
LeftArm  -11.8336 15.564 -25.5184
LeftForeArm  21.4497 -28.5732 -5.00955
LeftHand  -0.244104 0.0205437 5.32207
RightShoulder  6.57223 10.059 42.179
RightArm  0.901305 -4.47847 34.1207
RightForeArm  -23.3853 24.7858 6.3457
RightHand  -0.702243 -0.349491 -16.1489
LeftUpLeg  -26.5689 8.68126 -7.10383
LeftLeg  19.8662 4.68657 2.22887
LeftFoot  -5.06109 0.203717 -3.19393
LeftToes  5.72949e-011 -2.03295e-011 6.54899e-012
36
root  66.5975 39.2403 -34.9972 -128.602 -86.6478 129.169
RightUpLeg  9.51313 -9.56377 -5.36338
RightLeg  10.0699 -4.08253 3.49545
RightFoot  -20.3698 0.137622 3.48894
RightToes  -5.8209e-011 0 -3.6325e-017
Spine  3.55393 1.10485 8.8042
Spine1  13.82 3.21479 -6.22285
HEad  -7.50796 0.20225 -6.27676
LeftShoulder1  8.88559 -12.6282 -48.0788
LeftArm  -12.7348 15.9129 -26.2407
LeftForeArm  23.5789 -30.0682 -5.23893
LeftHand  -0.244104 0.0205437 5.32207
RightShoulder  6.83915 10.5411 42.4005
RightArm  1.56567 -1.57193 34.456
RightForeArm  -17.4459 27.1669 6.71123
RightHand  -0.556184 -0.560358 -13.3715
LeftUpLeg  -26.7127 8.9119 -7.44049
LeftLeg  14.6316 4.33557 1.0647
LeftFoot  -2.31216 0.200134 -2.36771
LeftToes  5.72949e-011 -2.03295e-011 6.54899e-012
37
root  65.5937 39.0339 -35.0979 -137.646 -86.1895 138.149
RightUpLeg  11.5195 -9.62541 -5.77692
RightLeg  9.54904 -2.88793 3.72154
RightFoot  -21.206 0.183198 3.78765
RightToes  -5.8209e-011 0 -3.6325e-017
Spine  4.24304 1.31809 9.05473
Spine1  13.817 3.75835 -7.09765
HEad  -8.45186 0.752119 -6.44874
LeftShoulder1  8.88508 -12.6767 -47.9305
LeftArm  -12.8413 16.5738 -26.8369
LeftForeArm  24.4013 -30.6701 -5.33519
LeftHand  -0.244104 0.0205437 5.32207
RightShoulder  7.06386 11.029 42.3181
RightArm  2.36733 1.37738 35.2333
RightForeArm  -11.8727 28.1302 6.68663
RightHand  -0.486056 -0.801894 -12.2855
LeftUpLeg  -26.8604 6.98856 -6.16765
LeftLeg  11.3187 7.57962 -0.265005
LeftFoot  -1.03579 0.130567 -1.36341
LeftToes  5.72949e-011 -2.03295e-011 6.54899e-012
38
root  64.4587 38.7793 -35.1801 -146.631 -85.5051 147.336
RightUpLeg  12.9975 -9.88251 -6.26566
RightLeg  9.81788 -1.14902 3.8428
RightFoot  -21.7911 0.202687 3.83235
RightToes  -5.8209e-011 0 -3.6325e-017
Spine  4.82483 1.64042 9.04296
Spine1  13.2811 4.25752 -7.61042
HEad  -9.09494 1.28296 -6.50329
LeftShoulder1  8.88264 -12.6256 -48.0707
LeftArm  -11.8351 17.2128 -27.0909
LeftForeArm  23.9384 -29.978 -5.19877
LeftHand  -0.244104 0.0205437 5.32207
RightShoulder  7.1149 11.2627 41.9216
RightArm  3.776 3.95444 36.2286
RightForeArm  -6.69431 28.4481 6.50775
RightHand  -0.5395 -0.516683 -12.8304
LeftUpLeg  -27.4268 6.52203 -5.67376
LeftLeg  10.549 9.18987 -0.624151
LeftFoot  -1.1242 0.0827251 -0.836288
LeftToes  5.72949e-011 -2.03295e-011 6.54899e-012
39
root  63.1619 38.5133 -35.2233 -154.225 -84.2398 155.181
RightUpLeg  14.0863 -10.4919 -7.12585
RightLeg  11.1279 1.11261 3.59934
RightFoot  -21.9788 0.184564 3.57946
RightToes  -5.8209e-011 0 -3.6325e-017
Spine  5.10007 2.1983 8.83675
Spine1  12.7757 4.99989 -8.13696
HEad  -9.76014 1.69657 -6.38814
LeftShoulder1  8.86912 -12.5442 -48.2422
LeftArm  -10.2342 17.7577 -27.1827
LeftForeArm  23.3842 -28.0287 -4.77895
LeftHand  -0.244104 0.0205437 5.32207
RightShoulder  7.03332 11.2328 41.4956
RightArm  5.70174 5.40396 36.9398
RightForeArm  -2.51307 29.3121 6.504
RightHand  -0.679447 0.308695 -13.8953
LeftUpLeg  -27.792 7.88202 -6.35319
LeftLeg  11.74 8.86356 0.142936
LeftFoot  -0.376889 -0.0280508 0.278234
LeftToes  5.72949e-011 -2.03295e-011 6.54899e-012
